<?xml version="1.0" encoding="UTF-8"?>
<svg version="1.1" xmlns="http://www.w3.org/2000/svg" width="505" height="505">
<path d="M0 0 C2.12109375 2.17578125 2.12109375 2.17578125 4.4375 5.3125 C4.85999023 5.88355469 5.28248047 6.45460938 5.71777344 7.04296875 C7.16330883 9.01614017 8.58263803 11.00650451 10 13 C10.53963379 13.74942871 11.07926758 14.49885742 11.63525391 15.27099609 C34.05893039 46.53508605 41.02391808 81.74634615 35.359375 119.88085938 C32.81793025 134.86709608 26.26210662 147.13175407 17 159 C16.32066406 159.87785156 15.64132812 160.75570312 14.94140625 161.66015625 C12.57469623 164.51258945 9.86833551 166.65850163 7 169 C6.2575 169.763125 5.515 170.52625 4.75 171.3125 C-1.82016099 177.73333915 -9.21351194 182.90028692 -16.890625 187.90234375 C-21.27145916 190.85775574 -25.42958211 194.07127639 -29.6015625 197.3125 C-32 199 -32 199 -34 199 C-34 199.66 -34 200.32 -34 201 C-35.66666667 202.66666667 -37.33333333 204.33333333 -39 206 C-46.77221875 215.05286843 -46.26533709 224.67895088 -46 236 C-49.77968573 235.22976993 -51.47959631 233.97047577 -54 231 C-54 230.34 -54 229.68 -54 229 C-54.66 229 -55.32 229 -56 229 C-62.34060555 220.56715433 -65.34720627 211.05160123 -68 201 C-68.2475 200.10023438 -68.495 199.20046875 -68.75 198.2734375 C-74.96432952 171.08574587 -66.03143788 143.13406769 -54 119 C-53.34 119 -52.68 119 -52 119 C-51.8865625 118.43023437 -51.773125 117.86046875 -51.65625 117.2734375 C-48.41721556 106.05249678 -38.5952035 94.83802661 -32.05517578 85.12597656 C-28.08148678 79.22416387 -24.26252559 73.33616811 -21 67 C-21.680625 67.99 -21.680625 67.99 -22.375 69 C-22.91125 69.66 -23.4475 70.32 -24 71 C-24.66 71 -25.32 71 -26 71 C-26.25652344 71.58523437 -26.51304687 72.17046875 -26.77734375 72.7734375 C-28.10562162 75.19234608 -29.56524801 76.73198872 -31.5625 78.625 C-34.14015389 81.04521959 -34.14015389 81.04521959 -36 84 C-36.66 84 -37.32 84 -38 84 C-38.268125 84.5775 -38.53625 85.155 -38.8125 85.75 C-40.02929189 88.05550043 -41.30333879 90.02056192 -43 92 C-43.66 92 -44.32 92 -45 92 C-45.268125 92.556875 -45.53625 93.11375 -45.8125 93.6875 C-47.10899496 96.21225334 -48.42476323 98.63714484 -50 101 C-50.66 101 -51.32 101 -52 101 C-52.24492187 101.69480469 -52.48984375 102.38960938 -52.7421875 103.10546875 C-54.19086258 106.43922103 -56.09891282 109.31532962 -58.125 112.3125 C-71.54487247 132.74210277 -79.65091739 154.5935807 -79.25 179.25 C-79.24226563 181.17585938 -79.24226563 181.17585938 -79.234375 183.140625 C-79.17694323 190.14730144 -78.87483508 197.04607835 -78 204 C-82.07961116 204 -83.33076956 202.3965241 -86.4375 199.8125 C-87.38496094 199.03519531 -88.33242187 198.25789062 -89.30859375 197.45703125 C-91.86976924 195.11888991 -93.99219281 192.82422052 -96 190 C-96 189.34 -96 188.68 -96 188 C-96.66 188 -97.32 188 -98 188 C-99.54038817 185.88350666 -100.90870191 183.80253731 -102.25 181.5625 C-102.64968994 180.89524902 -103.04937988 180.22799805 -103.46118164 179.54052734 C-114.69590036 160.05195999 -118.80521588 135.93301893 -113.5 113.9375 C-108.19191121 97.35675621 -98.87040482 83.58307452 -87 71 C-86.46761719 70.42636719 -85.93523437 69.85273438 -85.38671875 69.26171875 C-84.3042885 68.12820034 -83.15972931 67.05429937 -82 66 C-81.34 66 -80.68 66 -80 66 C-80 65.34 -80 64.68 -80 64 C-79.34 64 -78.68 64 -78 64 C-78 63.34 -78 62.68 -78 62 C-76.59472656 60.71899414 -76.59472656 60.71899414 -74.640625 59.28515625 C-73.93679687 58.76373047 -73.23296875 58.24230469 -72.5078125 57.70507812 C-71.76273438 57.16302734 -71.01765625 56.62097656 -70.25 56.0625 C-69.52039063 55.52431641 -68.79078125 54.98613281 -68.0390625 54.43164062 C-66.66914321 53.42163649 -65.29727093 52.41427221 -63.92285156 51.41040039 C-62.55581805 50.40768929 -61.21073219 49.37475361 -59.88183594 48.32202148 C-58 47 -58 47 -56 47 C-56 46.34 -56 45.68 -56 45 C-54.02 44.34 -52.04 43.68 -50 43 C-50 42.34 -50 41.68 -50 41 C-48.05078125 39.625 -48.05078125 39.625 -45.3125 38 C-34.17032515 31.09700735 -23.34277268 22.81257093 -14.3515625 13.24609375 C-13 12 -13 12 -11 12 C-10.773125 11.319375 -10.54625 10.63875 -10.3125 9.9375 C-5.87234043 0 -5.87234043 0 0 0 Z " fill="#F9F8F6" transform="translate(287,101)"/>
<path d="M0 0 C1.4540625 0.0309375 1.4540625 0.0309375 2.9375 0.0625 C3.62021635 7.91373805 0.44638713 14.18697792 -3.0625 21.0625 C-3.7225 21.0625 -4.3825 21.0625 -5.0625 21.0625 C-5.2171875 21.8978125 -5.2171875 21.8978125 -5.375 22.75 C-6.20428408 25.5394101 -7.40549056 27.6764064 -9.0625 30.0625 C-9.7225 30.0625 -10.3825 30.0625 -11.0625 30.0625 C-11.2996875 30.77792969 -11.536875 31.49335938 -11.78125 32.23046875 C-13.27070269 35.52270411 -15.13044847 37.71000847 -17.5625 40.375 C-18.75359375 41.69951172 -18.75359375 41.69951172 -19.96875 43.05078125 C-22.0625 45.0625 -22.0625 45.0625 -24.0625 45.0625 C-24.0625 45.7225 -24.0625 46.3825 -24.0625 47.0625 C-28.53308824 51.0625 -28.53308824 51.0625 -31.0625 51.0625 C-31.0625 51.7225 -31.0625 52.3825 -31.0625 53.0625 C-32.56860352 54.2800293 -32.56860352 54.2800293 -34.69140625 55.63671875 C-35.47169189 56.1361499 -36.25197754 56.63558105 -37.0559082 57.15014648 C-37.9037085 57.67809814 -38.75150879 58.2060498 -39.625 58.75 C-40.48891357 59.29019775 -41.35282715 59.83039551 -42.24291992 60.38696289 C-49.6258397 64.92836057 -57.04621791 68.75855169 -65.0625 72.0625 C-66.19816406 72.53300781 -67.33382812 73.00351562 -68.50390625 73.48828125 C-77.52430017 76.96713624 -86.54687889 78.65559498 -96.0625 80.0625 C-97.22007812 80.24941406 -98.37765625 80.43632812 -99.5703125 80.62890625 C-133.02709355 84.78293611 -167.67378475 73.04350916 -194 52.625 C-196.40234375 50.69140625 -196.40234375 50.69140625 -198.0625 49.0625 C-198.0625 48.4025 -198.0625 47.7425 -198.0625 47.0625 C-198.64 46.815 -199.2175 46.5675 -199.8125 46.3125 C-202.39189979 44.87950012 -204.12371592 43.27825324 -206.0625 41.0625 C-206.0625 40.4025 -206.0625 39.7425 -206.0625 39.0625 C-206.7225 39.0625 -207.3825 39.0625 -208.0625 39.0625 C-212.0625 34.59191176 -212.0625 34.59191176 -212.0625 32.0625 C-212.7225 32.0625 -213.3825 32.0625 -214.0625 32.0625 C-215.25170898 30.53710938 -215.25170898 30.53710938 -216.55859375 28.40625 C-217.03490234 27.63023437 -217.51121094 26.85421875 -218.00195312 26.0546875 C-218.49630859 25.23226563 -218.99066406 24.40984375 -219.5 23.5625 C-219.99048828 22.77101563 -220.48097656 21.97953125 -220.98632812 21.1640625 C-228.36936956 9.00844773 -228.36936956 9.00844773 -227.75 3.0625 C-227.523125 2.4025 -227.29625 1.7425 -227.0625 1.0625 C-224.7525 1.0625 -222.4425 1.0625 -220.0625 1.0625 C-220.0625 1.7225 -220.0625 2.3825 -220.0625 3.0625 C-219.4025 3.0625 -218.7425 3.0625 -218.0625 3.0625 C-214.0625 7.53308824 -214.0625 7.53308824 -214.0625 10.0625 C-213.4025 10.0625 -212.7425 10.0625 -212.0625 10.0625 C-212.0625 10.7225 -212.0625 11.3825 -212.0625 12.0625 C-211.4025 12.0625 -210.7425 12.0625 -210.0625 12.0625 C-210.0625 12.7225 -210.0625 13.3825 -210.0625 14.0625 C-209.4025 14.0625 -208.7425 14.0625 -208.0625 14.0625 C-206.94293028 15.14708317 -205.83110265 16.24035023 -204.75 17.36328125 C-202.58410451 19.54421768 -200.33330429 21.61606692 -198.0625 23.6875 C-196.825 24.82058594 -196.825 24.82058594 -195.5625 25.9765625 C-193.11348363 28.13618977 -193.11348363 28.13618977 -190.25 29.7109375 C-189.528125 30.15695312 -188.80625 30.60296875 -188.0625 31.0625 C-188.0625 31.7225 -188.0625 32.3825 -188.0625 33.0625 C-187.01642578 33.44341797 -187.01642578 33.44341797 -185.94921875 33.83203125 C-182.71799525 35.20934573 -179.87617434 36.92491309 -176.875 38.75 C-147.41605536 56.00621938 -111.11527589 60.45570375 -78.17749023 51.8671875 C-62.89506838 47.61232588 -48.91457235 41.82326342 -35.80078125 32.82421875 C-33.0625 31.0625 -33.0625 31.0625 -31.0625 31.0625 C-31.0625 30.4025 -31.0625 29.7425 -31.0625 29.0625 C-30.4025 29.0625 -29.7425 29.0625 -29.0625 29.0625 C-29.0625 28.4025 -29.0625 27.7425 -29.0625 27.0625 C-27.33987445 25.54752541 -25.55814485 24.099307 -23.75 22.6875 C-20.31115924 19.99936043 -17.65140928 17.55155312 -15.0625 14.0625 C-14.4025 14.0625 -13.7425 14.0625 -13.0625 14.0625 C-12.80597656 13.49917969 -12.54945313 12.93585938 -12.28515625 12.35546875 C-10.91766033 9.79086777 -9.30333892 7.65270365 -7.5 5.375 C-6.87996094 4.58738281 -6.25992188 3.79976563 -5.62109375 2.98828125 C-3.25637154 0.06645656 -3.25637154 0.06645656 0 0 Z " fill="#F2EFEC" transform="translate(362.0625,303.9375)"/>
<path d="M0 0 C1.67578125 1.1328125 1.67578125 1.1328125 3 3 C3.29296875 5.91796875 3.29296875 5.91796875 3.1875 9.1875 C3.16042969 10.27417969 3.13335937 11.36085937 3.10546875 12.48046875 C3.07066406 13.31191406 3.03585937 14.14335937 3 15 C3.84304688 14.98839844 4.68609375 14.97679687 5.5546875 14.96484375 C6.65039062 14.95582031 7.74609375 14.94679687 8.875 14.9375 C10.51082031 14.92009766 10.51082031 14.92009766 12.1796875 14.90234375 C15 15 15 15 17 16 C17.85056945 19.55692677 18.16909807 21.49270578 17 25 C14.23547967 26.38226016 11.9538637 26.09525387 8.875 26.0625 C7.77929688 26.05347656 6.68359375 26.04445312 5.5546875 26.03515625 C4.29011719 26.01775391 4.29011719 26.01775391 3 26 C3.05220703 27.24716797 3.05220703 27.24716797 3.10546875 28.51953125 C3.13253906 29.60621094 3.15960938 30.69289062 3.1875 31.8125 C3.23970703 33.43091797 3.23970703 33.43091797 3.29296875 35.08203125 C3 38 3 38 1.7109375 39.8671875 C-1.1194638 41.74119749 -3.72042981 41.29814274 -7 41 C-9 39 -9 39 -9.1953125 35.9609375 C-9.17210937 34.77757812 -9.14890625 33.59421875 -9.125 32.375 C-9.10695313 31.18648437 -9.08890625 29.99796875 -9.0703125 28.7734375 C-9.04710937 27.85820312 -9.02390625 26.94296875 -9 26 C-9.84304688 26.01160156 -10.68609375 26.02320313 -11.5546875 26.03515625 C-12.65039062 26.04417969 -13.74609375 26.05320313 -14.875 26.0625 C-15.96554687 26.07410156 -17.05609375 26.08570313 -18.1796875 26.09765625 C-21 26 -21 26 -23 25 C-23.85056945 21.44307323 -24.16909807 19.50729422 -23 16 C-17.7291963 14.21328688 -14.50274523 13.89787649 -9 15 C-9.03480469 14.08476562 -9.06960938 13.16953125 -9.10546875 12.2265625 C-9.14607422 10.44378906 -9.14607422 10.44378906 -9.1875 8.625 C-9.23970703 6.84996094 -9.23970703 6.84996094 -9.29296875 5.0390625 C-9.19628906 4.03617188 -9.09960938 3.03328125 -9 2 C-5.53076119 -0.31282587 -4.07794425 -0.42478586 0 0 Z " fill="#F0EFEE" transform="translate(360,134)"/>
<path d="M0 0 C2.57637471 1.88515223 3.59667428 3.19334857 5 6 C5.5811138 13.08958838 5.5811138 13.08958838 3.125 16.9375 C0.13512181 19.8394406 -1.44464969 20.13816672 -5.5 20.125 C-6.2940625 20.12757813 -7.088125 20.13015625 -7.90625 20.1328125 C-10 20 -10 20 -12 19 C-12 18.34 -12 17.68 -12 17 C-12.66 17 -13.32 17 -14 17 C-16.23244396 12.66643232 -16.25804803 9.69671265 -15 5 C-11.18226172 -0.78818384 -6.44891036 -1.20917069 0 0 Z " fill="#E4E5E5" transform="translate(360,231)"/>
<path d="M0 0 C3.37021602 2.0970233 5.89129539 4.11953387 7 8 C6.92106184 12.34159892 6.4449386 14.43146734 3.75 17.875 C0.85671355 20.11072135 -0.37126306 21 -4 21 C-10.12456747 19.02768166 -10.12456747 19.02768166 -12.4375 16.3125 C-13.49441272 11.96741438 -14.24240332 8.0957266 -11.90234375 4.1484375 C-8.32296354 0.12044164 -5.47090124 -0.99470932 0 0 Z " fill="#E3E2E4" transform="translate(137,199)"/>
<path d="M0 0 C3.74785043 2.08213913 4.79482295 3.2947039 6 7.4375 C6 11.4184894 5.5177436 12.96134393 3 16 C0.3259797 18.10101595 -1.04284685 17.99846976 -4.5 17.875 C-8.405988 16.898503 -9.83194553 16.38216497 -12 13 C-12.55363882 10.22039065 -12.58151903 7.77646831 -12 5 C-8.53870498 0.50031647 -5.60476862 -0.54948712 0 0 Z " fill="#EFECEB" transform="translate(173,137)"/>
<path d="M0 0 C-0.66 0 -1.32 0 -2 0 C-2 0.66 -2 1.32 -2 2 C-8.23291749 3.6845723 -14.41759567 4.75879319 -20.8125 5.625 C-21.73353516 5.7590625 -22.65457031 5.893125 -23.60351562 6.03125 C-32.66907578 7.27467183 -41.50175288 7.44108617 -50.5625 6.125 C-51.73941406 5.96257812 -52.91632813 5.80015625 -54.12890625 5.6328125 C-57 5 -57 5 -59 3 C-54.81174181 2.91452534 -50.77747394 2.88481867 -46.625 3.5 C-33.16668351 5.35631952 -17.94898161 3.74215199 -5.06640625 -0.51171875 C-3 -1 -3 -1 0 0 Z " fill="#F0EEEC" transform="translate(288,356)"/>
<path d="M0 0 C0.66 0 1.32 0 2 0 C2.02505615 0.67466309 2.0501123 1.34932617 2.07592773 2.04443359 C2.1932631 5.15475193 2.31535527 8.26486696 2.4375 11.375 C2.47681641 12.43589844 2.51613281 13.49679687 2.55664062 14.58984375 C2.81593174 21.09206713 3.26216036 27.53417092 4 34 C-0.38968456 34 -1.76905739 31.87194899 -5 29 C-3 28 -1 27 1 26 C0.67 25.01 0.34 24.02 0 23 C-0.08209792 21.22686149 -0.10746294 19.45079225 -0.09765625 17.67578125 C-0.09282227 16.13374023 -0.09282227 16.13374023 -0.08789062 14.56054688 C-0.07951172 13.48869141 -0.07113281 12.41683594 -0.0625 11.3125 C-0.05798828 10.22904297 -0.05347656 9.14558594 -0.04882812 8.02929688 C-0.03703743 5.35280915 -0.02058063 2.67643223 0 0 Z " fill="#838487" transform="translate(205,271)"/>
<path d="M0 0 C3 1 3 1 4.5 3.9921875 C5.01344631 5.28118319 5.51266311 6.57590811 6 7.875 C6.26055176 8.54958252 6.52110352 9.22416504 6.78955078 9.91918945 C12 23.67523159 12 23.67523159 12 31 C11.34 31 10.68 31 10 31 C9.78085937 30.1028125 9.56171875 29.205625 9.3359375 28.28125 C6.86735954 18.56749607 3.67423496 9.32030936 0 0 Z " fill="#B9B6C4" transform="translate(309,136)"/>
<path d="M0 0 C0.66 0 1.32 0 2 0 C0.49850611 4.99715935 -1.62029307 9.44535124 -4 14.0625 C-6.18151221 18.31882003 -8.32062811 22.51292822 -10 27 C-10.66 27 -11.32 27 -12 27 C-10.12849037 19.84870304 -7.50213658 13.50594543 -4 7 C-3.34 7 -2.68 7 -2 7 C-1.855625 6.21625 -1.71125 5.4325 -1.5625 4.625 C-1 2 -1 2 0 0 Z " fill="#9EA1AD" transform="translate(223,217)"/>
<path d="M0 0 C-0.66 0 -1.32 0 -2 0 C-2 0.66 -2 1.32 -2 2 C-11.74704295 4.72917202 -21.94856988 7.01028602 -32 5 C-32 4.67 -32 4.34 -32 4 C-30.24236328 3.83564453 -30.24236328 3.83564453 -28.44921875 3.66796875 C-20.42219322 2.87218973 -12.76898869 2.03170049 -5.06640625 -0.51171875 C-3 -1 -3 -1 0 0 Z " fill="#BAACA8" transform="translate(288,356)"/>
<path d="M0 0 C0.66 0.99 1.32 1.98 2 3 C-0.64 3 -3.28 3 -6 3 C-6.33 7.29 -6.66 11.58 -7 16 C-7.99 15.67 -8.98 15.34 -10 15 C-9.9131724 12.87422093 -9.8050049 10.74930419 -9.6875 8.625 C-9.62949219 7.44164062 -9.57148438 6.25828125 -9.51171875 5.0390625 C-9.34285156 4.03617188 -9.17398437 3.03328125 -9 2 C-5.54970958 -0.30019361 -4.05445642 -0.43132515 0 0 Z " fill="#D6D4D7" transform="translate(360,134)"/>
<path d="M0 0 C0.33 0.99 0.66 1.98 1 3 C-0.27277889 4.7133562 -1.62294236 6.36927384 -3 8 C-4.29098622 10.08847618 -5.53276209 12.19812929 -6.75390625 14.328125 C-8 16 -8 16 -11 17 C-9.62666848 13.17527171 -7.85872294 10.11571157 -5.5 6.8125 C-4.8915625 5.95269531 -4.283125 5.09289062 -3.65625 4.20703125 C-2 2 -2 2 0 0 Z " fill="#CDCACD" transform="translate(193,180)"/>
<path d="M0 0 C1.86022936 5.58068808 -1.29494644 11.48544051 -3.6875 16.625 C-4.120625 17.40875 -4.55375 18.1925 -5 19 C-5.33 19 -5.66 19 -6 19 C-5.35729017 13.0870696 -3.80996216 7.65755469 -2 2 C-1.34 2 -0.68 2 0 2 C0 1.34 0 0.68 0 0 Z " fill="#A1A3B0" transform="translate(320,224)"/>
<path d="M0 0 C2.43929614 0.45005464 4.87611777 0.90964876 7.3125 1.375 C8.34793945 1.56449219 8.34793945 1.56449219 9.40429688 1.7578125 C12.83703314 2.42114318 15.05246458 3.03497639 18 5 C14.17760564 6.39682559 11.21208731 5.64083517 7.3125 4.75 C6.15363281 4.49734375 4.99476563 4.2446875 3.80078125 3.984375 C2.87652344 3.65953125 1.95226562 3.3346875 1 3 C0.67 2.01 0.34 1.02 0 0 Z " fill="#BBB8B8" transform="translate(209,354)"/>
<path d="M0 0 C0.70640625 0.39445312 1.4128125 0.78890625 2.140625 1.1953125 C4.21231746 1.63004589 6.29790251 2.00185473 8.390625 2.3203125 C9.46828125 2.48789062 10.5459375 2.65546875 11.65625 2.828125 C12.88601562 3.00988281 12.88601562 3.00988281 14.140625 3.1953125 C14.140625 3.8553125 14.140625 4.5153125 14.140625 5.1953125 C7.28026099 4.53566211 0.79618577 2.9590361 -5.859375 1.1953125 C-2.390625 -1.03459821 -2.390625 -1.03459821 0 0 Z " fill="#D0BEB6" transform="translate(216.859375,377.8046875)"/>
<path d="M0 0 C0 3.23655184 -0.6550847 4.78752639 -2 7.6875 C-2.556875 8.89986328 -2.556875 8.89986328 -3.125 10.13671875 C-3.41375 10.75160156 -3.7025 11.36648437 -4 12 C-4.66 12 -5.32 12 -6 12 C-6 12.66 -6 13.32 -6 14 C-6.66 14 -7.32 14 -8 14 C-6.6744419 10.37723685 -5.05653045 7.36494652 -2.875 4.1875 C-2.33617187 3.39730469 -1.79734375 2.60710937 -1.2421875 1.79296875 C-0.83226562 1.20128906 -0.42234375 0.60960937 0 0 Z " fill="#C6C5C6" transform="translate(277,151)"/>
<path d="M0 0 C5.45769811 -0.11138159 10.61509359 0.08342019 16 1 C12.74695944 2.96695476 10.62769961 3.17567936 6.875 2.75 C6.00617188 2.66234375 5.13734375 2.5746875 4.2421875 2.484375 C2 2 2 2 0 0 Z " fill="#A5A2A1" transform="translate(229,359)"/>
<path d="M0 0 C0.33 0 0.66 0 1 0 C1.12117188 0.99902344 1.24234375 1.99804688 1.3671875 3.02734375 C1.53476562 4.31769531 1.70234375 5.60804688 1.875 6.9375 C2.03742188 8.22527344 2.19984375 9.51304687 2.3671875 10.83984375 C2.57601563 11.88269531 2.78484375 12.92554688 3 14 C3.66 14.33 4.32 14.66 5 15 C1.125 14.125 1.125 14.125 0 13 C-0.07258946 10.81360547 -0.08373783 8.62499611 -0.0625 6.4375 C-0.05347656 5.23996094 -0.04445313 4.04242188 -0.03515625 2.80859375 C-0.02355469 1.88175781 -0.01195312 0.95492187 0 0 Z " fill="#C9C5CA" transform="translate(351,160)"/>
<path d="M0 0 C0.99 0 1.98 0 3 0 C4.32 3.3 5.64 6.6 7 10 C6.01 10.495 6.01 10.495 5 11 C4.16426177 9.35538655 3.33147118 7.70927487 2.5 6.0625 C2.0359375 5.14597656 1.571875 4.22945313 1.09375 3.28515625 C0 1 0 1 0 0 Z " fill="#A6ACB1" transform="translate(178,268)"/>
<path d="M0 0 C0.33 0 0.66 0 1 0 C1 2.64 1 5.28 1 8 C-0.875 7.6875 -0.875 7.6875 -3 7 C-3.66 6.01 -4.32 5.02 -5 4 C-3.68 4.33 -2.36 4.66 -1 5 C-0.67 3.35 -0.34 1.7 0 0 Z " fill="#959596" transform="translate(240,329)"/>
<path d="M0 0 C0.66 0 1.32 0 2 0 C0.44298069 4.67105792 -2.08447373 8.08705685 -5 12 C-5.33 11.34 -5.66 10.68 -6 10 C-4.85546875 7.6171875 -4.85546875 7.6171875 -3.1875 4.875 C-2.64480469 3.96492187 -2.10210937 3.05484375 -1.54296875 2.1171875 C-1.03378906 1.41851562 -0.52460938 0.71984375 0 0 Z " fill="#A7A9AF" transform="translate(312,244)"/>
<path d="M0 0 C-0.8125 1.9375 -0.8125 1.9375 -2 4 C-2.99 4.33 -3.98 4.66 -5 5 C-5.33 5.99 -5.66 6.98 -6 8 C-6.99 7.67 -7.98 7.34 -9 7 C-7.88121617 5.82737096 -6.75476949 4.66204862 -5.625 3.5 C-4.68527344 2.52546875 -4.68527344 2.52546875 -3.7265625 1.53125 C-2 0 -2 0 0 0 Z " fill="#C3C3C5" transform="translate(276,113)"/>
<path d="M0 0 C1.45880109 0.14107747 2.91703551 0.28802415 4.375 0.4375 C5.59316406 0.55931641 5.59316406 0.55931641 6.8359375 0.68359375 C9 1 9 1 11 2 C11 2.66 11 3.32 11 4 C7.0507432 3.44894091 3.65079826 2.61064629 0 1 C0 0.67 0 0.34 0 0 Z " fill="#CEB8AE" transform="translate(200,374)"/>
<path d="M0 0 C0 3 0 3 -1.1875 4.5625 C-3.32699313 6.25933938 -5.43483454 7.09872565 -8 8 C-7.04578192 6.85073734 -6.08647955 5.70569459 -5.125 4.5625 C-4.59132813 3.92441406 -4.05765625 3.28632813 -3.5078125 2.62890625 C-2 1 -2 1 0 0 Z " fill="#A9A4A3" transform="translate(342,324)"/>
<path d="M0 0 C0.90105469 0.01804688 1.80210937 0.03609375 2.73046875 0.0546875 C3.41753906 0.07789063 4.10460937 0.10109375 4.8125 0.125 C4.8125 0.455 4.8125 0.785 4.8125 1.125 C4.18601562 1.16238281 3.55953125 1.19976562 2.9140625 1.23828125 C2.09679687 1.30402344 1.27953125 1.36976563 0.4375 1.4375 C-0.78066406 1.52451172 -0.78066406 1.52451172 -2.0234375 1.61328125 C-4.56671338 1.95490528 -4.56671338 1.95490528 -6.1875 5.125 C-7.1775 5.125 -8.1675 5.125 -9.1875 5.125 C-7.51320877 0.1021263 -4.80985821 -0.12493138 0 0 Z " fill="#ACB2B6" transform="translate(355.1875,230.875)"/>
<path d="M0 0 C2.39763185 2.39763185 2.34280586 3.33273498 2.625 6.625 C2.69976562 7.44226563 2.77453125 8.25953125 2.8515625 9.1015625 C2.90054687 9.72804687 2.94953125 10.35453125 3 11 C2.34 11 1.68 11 1 11 C-0.28317892 7.15046324 -0.06643637 4.05261865 0 0 Z " fill="#A6A6AB" transform="translate(318,156)"/>
<path d="M0 0 C0 0.66 0 1.32 0 2 C-2.25 4.1875 -2.25 4.1875 -5 6 C-7.3125 5.75 -7.3125 5.75 -9 5 C-8.01 4.67 -7.02 4.34 -6 4 C-6 3.34 -6 2.68 -6 2 C-2.25 0 -2.25 0 0 0 Z " fill="#CECCCF" transform="translate(237,144)"/>
<path d="M0 0 C0.66 0.33 1.32 0.66 2 1 C0.93106782 2.03590338 -0.15578488 3.05333942 -1.25 4.0625 C-2.15492188 4.91521484 -2.15492188 4.91521484 -3.078125 5.78515625 C-4.02945313 6.38650391 -4.02945313 6.38650391 -5 7 C-6.32 6.67 -7.64 6.34 -9 6 C-6.03 4.02 -3.06 2.04 0 0 Z " fill="#C4C3C7" transform="translate(246,136)"/>
<path d="M0 0 C0.66 0.99 1.32 1.98 2 3 C-1.3 3 -4.6 3 -8 3 C-8 2.34 -8 1.68 -8 1 C-5.21136993 -0.39431504 -3.07921132 -0.25660094 0 0 Z " fill="#C0C0C8" transform="translate(360,134)"/>
<path d="M0 0 C4.02550319 1.3418344 4.88285636 3.4227573 7 7 C7 7.66 7 8.32 7 9 C6.34 9 5.68 9 5 9 C3.35 6.03 1.7 3.06 0 0 Z " fill="#7E7E81" transform="translate(184,280)"/>
<path d="M0 0 C1 2 1 2 0.125 5 C-1 8 -1 8 -2 10 C-2.66 10 -3.32 10 -4 10 C-3.52449439 8.51965236 -3.04448784 7.04074979 -2.5625 5.5625 C-2.29566406 4.73878906 -2.02882812 3.91507813 -1.75390625 3.06640625 C-1 1 -1 1 0 0 Z " fill="#B2B4BE" transform="translate(232,223)"/>
<path d="M0 0 C3.75068199 0.45008184 4.78988517 1.50101252 7.125 4.375 C5.475 4.045 3.825 3.715 2.125 3.375 C2.125 2.715 2.125 2.055 2.125 1.375 C-0.185 1.705 -2.495 2.035 -4.875 2.375 C-2.875 0.375 -2.875 0.375 0 0 Z " fill="#CCC5C7" transform="translate(169.875,136.625)"/>
<path d="M0 0 C1.32 0.33 2.64 0.66 4 1 C4 1.66 4 2.32 4 3 C4.99 3.33 5.98 3.66 7 4 C7 4.66 7 5.32 7 6 C4.50638429 4.79618552 2.31856917 3.54571278 0 2 C0 1.34 0 0.68 0 0 Z " fill="#BCAEAA" transform="translate(164,351)"/>
</svg>
